<svg xmlns="http://www.w3.org/2000/svg" width="219" height="219" viewBox="0 0 219 219">
  <g id="logo" transform="translate(-135.541 -23.541)">
    <g id="Rectangle_816" data-name="Rectangle 816" transform="translate(135.541 23.541)" fill="none" stroke="#5504f5" stroke-width="8">
      <rect width="219" height="219" rx="12" stroke="none"/>
      <rect x="4" y="4" width="211" height="211" rx="8" fill="none"/>
    </g>
    <g id="Group_748" data-name="Group 748" transform="translate(176.438 64.439)">
      <g id="Group_747" data-name="Group 747" transform="translate(0 0)">
        <rect id="Rectangle_815" data-name="Rectangle 815" width="140.869" height="140.869" fill="none"/>
        <g id="Group_742" data-name="Group 742" transform="translate(1.496 7.35)">
          <path id="Path_653" data-name="Path 653" d="M84.423,85.046a29.08,29.08,0,0,0-6.371-6.785,33.325,33.325,0,0,0-9.582-4.92,34.061,34.061,0,0,0,8.287-5.179,33.1,33.1,0,0,0,5.9-6.578,29.816,29.816,0,0,0,3.574-7.3,25.522,25.522,0,0,0,1.191-7.51A38.494,38.494,0,0,0,84.579,31.6,29.55,29.55,0,0,0,76.5,20.667a35.534,35.534,0,0,0-12.482-6.63A54.2,54.2,0,0,0,47.961,11.81a46.7,46.7,0,0,0-15.745,2.538,38.311,38.311,0,0,0-12.43,7.044,32.7,32.7,0,0,0-8.132,10.67C9.685,36.153,10.36,44.01,18.688,45.476s11.042-5.024,12.026-7.148A15.408,15.408,0,0,1,34.7,32.942a18.11,18.11,0,0,1,6.008-3.47,22.184,22.184,0,0,1,7.51-1.243c6.319,0,10.98,1.606,14.088,4.869,3.056,3.263,4.61,7.769,4.61,13.622a22.451,22.451,0,0,1-1.243,7.665,14.362,14.362,0,0,1-3.884,5.9,18.447,18.447,0,0,1-6.526,3.833,27.185,27.185,0,0,1-9.219,1.4S33.873,64.757,33.873,73.6s12.172,8.129,12.172,8.129a35.276,35.276,0,0,1,9.426,1.191A18.733,18.733,0,0,1,62.618,86.6a16.685,16.685,0,0,1,4.558,6.319,22.872,22.872,0,0,1,1.606,9.064c0,6.422-1.813,11.343-5.49,14.709s-8.65,5.076-15.02,5.076a24.625,24.625,0,0,1-8.287-1.295,17.778,17.778,0,0,1-6.319-3.729,15.841,15.841,0,0,1-4.04-5.8c-.984-2.227-2.61-8.662-11.82-7.458S8.6,114.206,10.825,118.5a31.321,31.321,0,0,0,8.857,10.877,38.832,38.832,0,0,0,12.9,6.526,53.508,53.508,0,0,0,15.331,2.175A55.554,55.554,0,0,0,64.276,135.7a38.764,38.764,0,0,0,13.1-6.992,31.858,31.858,0,0,0,8.65-11.343,36.43,36.43,0,0,0,3.108-15.383A33.5,33.5,0,0,0,88,93.126a28.286,28.286,0,0,0-3.574-8.08Z" transform="translate(50.526 -11.81)" fill="#5504f5"/>
          <g id="Group_737" data-name="Group 737" transform="translate(0 17.031)">
            <path id="Path_661" data-name="Path 661" d="M10.2,0a10.2,10.2,0,0,1,10.2,10.2V54.418A10.2,10.2,0,0,1,0,54.418V10.2A10.2,10.2,0,0,1,10.2,0Z" transform="translate(45.694 0) rotate(45)" fill="#5504f5"/>
            <path id="Path_662" data-name="Path 662" d="M10.2,0a10.2,10.2,0,0,1,10.2,10.2V54.418A10.2,10.2,0,0,1,0,54.418V10.2A10.2,10.2,0,0,1,10.2,0Z" transform="translate(0 47.239) rotate(-45)" fill="#5504f5"/>
          </g>
        </g>
      </g>
    </g>
  </g>
</svg>
