<svg xmlns="http://www.w3.org/2000/svg" width="33" height="33.428" viewBox="0 0 33 33.428">
  <defs>
    <style>
      .cls-1 {
        fill: none;
      }

      .cls-2 {
        fill: #03d3a9;
      }
    </style>
  </defs>
  <g id="LogoIcon" transform="translate(-106 -134)">
    <rect id="Rectangle_48" data-name="Rectangle 48" class="cls-1" width="33" height="33" transform="translate(106 134)"/>
    <path id="Union_4" data-name="Union 4" class="cls-2" d="M7.693,30.444a11.754,11.754,0,0,1-3.084-7.665,11.838,11.838,0,0,1,2.33-7.592,9.146,9.146,0,0,1,6.212-3.67l1.1,13.361.162-13.414c5.075.167,9.208,4.843,9.41,10.643a11.75,11.75,0,0,1-2.543,7.861A8.991,8.991,0,0,1,14.6,33.422c-.1,0-.2.005-.3.005A9.024,9.024,0,0,1,7.693,30.444ZM1.9,32.37,1.273,17.055A2.553,2.553,0,0,1,0,14.726,2.626,2.626,0,0,1,1.086,12.5L.942,8.982H2.851v3.48A2.6,2.6,0,0,1,4,14.726a2.6,2.6,0,0,1-1.148,2.262V32.37ZM8.294,10.286a5.457,5.457,0,0,1,.3-1.992c-1.134-.231-1.876-.451-1.876-.451L13.541,0l7.194,7.379s-.734.293-1.876.615a5.5,5.5,0,0,1,0,4.208h0a8.605,8.605,0,0,0-9.984.348A5.453,5.453,0,0,1,8.294,10.286Z" transform="translate(111 134)"/>
  </g>
</svg>
