<svg xmlns="http://www.w3.org/2000/svg" width="30" height="30" viewBox="0 0 30 30">
  <path id="codepen" d="M29.977,10.207c-.007-.036-.013-.073-.023-.108s-.013-.042-.02-.063-.021-.063-.033-.094-.019-.042-.029-.063-.028-.058-.044-.086-.024-.04-.037-.06a1.293,1.293,0,0,0-.1-.134q-.031-.036-.064-.07l-.052-.051q-.035-.032-.073-.061c-.019-.015-.038-.03-.059-.044l-.021-.016L15.715.218a1.288,1.288,0,0,0-1.43,0L.574,9.358l-.021.016c-.02.014-.039.029-.059.044s-.049.04-.073.061-.035.033-.051.05-.044.046-.064.07-.03.036-.044.057-.037.051-.054.078-.025.039-.037.06-.03.056-.044.085-.02.042-.029.063-.023.062-.034.094-.014.042-.02.061c-.009.036-.016.071-.023.108,0,.019-.008.037-.011.056A1.3,1.3,0,0,0,0,10.428v9.143a1.167,1.167,0,0,0,.012.168c0,.02.008.036.012.056a.747.747,0,0,0,.024.109c.006.02.012.04.02.063s.02.065.032.094.02.04.028.061.028.056.045.086.024.04.036.059a.636.636,0,0,0,.056.077c.014.02.028.036.045.056a.649.649,0,0,0,.065.07.316.316,0,0,0,.052.048l.073.061c.019.016.041.028.057.044s.012.012.02.016l13.707,9.145A1.267,1.267,0,0,0,15,30a1.3,1.3,0,0,0,.715-.217l13.711-9.141.021-.016c.02-.014.039-.029.059-.044s.05-.04.073-.061.035-.033.052-.05a1.157,1.157,0,0,0,.108-.126c.019-.025.037-.052.055-.078s.025-.039.037-.059.03-.057.044-.086.02-.041.029-.062.023-.063.033-.094.014-.042.02-.063.016-.072.023-.108c0-.019.008-.037.01-.056A1.275,1.275,0,0,0,30,19.572V10.431a1.364,1.364,0,0,0-.011-.169c0-.02-.009-.036-.013-.056h0ZM15,18.05,10.44,15,15,11.951,19.559,15ZM13.711,9.712,8.122,13.45,3.611,10.432,13.711,3.7V9.712ZM5.8,15,2.579,17.158V12.844Zm2.319,1.552,5.589,3.738V26.3L3.611,19.57l4.511-3.018h0Zm8.167,3.737,5.589-3.738,4.512,3.017L16.289,26.3V20.29ZM24.2,15l3.225-2.157v4.314L24.2,15h0ZM21.878,13.45,16.289,9.712V3.7l10.1,6.733L21.878,13.45Z" transform="translate(0 -0.001)" fill="#ccc"/>
</svg>
