<svg xmlns="http://www.w3.org/2000/svg" width="32.4" height="31.602" viewBox="0 0 32.4 31.602">
  <path id="github" d="M16.2,0A16.2,16.2,0,0,0,11.08,31.573c.809.15,1.071-.352,1.071-.779V27.778c-4.506.98-5.445-1.912-5.445-1.912a4.291,4.291,0,0,0-1.8-2.371c-1.47-1.006.112-.984.112-.984A3.4,3.4,0,0,1,7.5,24.181a3.448,3.448,0,0,0,4.714,1.346,3.437,3.437,0,0,1,1.029-2.165c-3.6-.412-7.381-1.8-7.381-8.007a6.27,6.27,0,0,1,1.669-4.348A5.827,5.827,0,0,1,7.69,6.719s1.361-.435,4.456,1.661a15.355,15.355,0,0,1,8.112,0c3.093-2.1,4.451-1.661,4.451-1.661a5.822,5.822,0,0,1,.159,4.288,6.253,6.253,0,0,1,1.667,4.348c0,6.222-3.789,7.592-7.4,7.993a3.872,3.872,0,0,1,1.111,3v4.446c0,.431.259.937,1.081.778A16.2,16.2,0,0,0,16.2,0Z" fill="#fff"/>
</svg>
