<svg xmlns="http://www.w3.org/2000/svg" xmlns:xlink="http://www.w3.org/1999/xlink" width="30.639" height="30" viewBox="0 0 30.639 30">
  <defs>
    <radialGradient id="radial-gradient" cx="0.133" cy="1.005" r="1.305" gradientTransform="translate(0)" gradientUnits="objectBoundingBox">
      <stop offset="0.09" stop-color="#fa8f21"/>
      <stop offset="0.78" stop-color="#d82d7e"/>
    </radialGradient>
    <radialGradient id="radial-gradient-2" cx="0.606" cy="1.05" r="1.029" xlink:href="#radial-gradient"/>
  </defs>
  <g id="instagram" transform="translate(-807 -3020)">
    <rect id="Rectangle_198" data-name="Rectangle 198" width="30" height="30" transform="translate(807 3020)" fill="none"/>
    <g id="instagram-2" data-name="instagram" transform="translate(808 3020)">
      <path id="Path_105" data-name="Path 105" d="M9.881,14.82a4.94,4.94,0,1,1,4.939,4.94,4.94,4.94,0,0,1-4.939-4.94m-2.671,0a7.61,7.61,0,1,0,7.61-7.61,7.61,7.61,0,0,0-7.61,7.61M20.953,6.908a1.778,1.778,0,1,0,1.779-1.778h0a1.779,1.779,0,0,0-1.778,1.778M8.833,26.883a8.191,8.191,0,0,1-2.752-.51,4.606,4.606,0,0,1-1.7-1.109,4.572,4.572,0,0,1-1.109-1.7,8.183,8.183,0,0,1-.51-2.752c-.072-1.562-.086-2.031-.086-5.989s.016-4.426.086-5.989a8.245,8.245,0,0,1,.51-2.752,4.606,4.606,0,0,1,1.109-1.7,4.567,4.567,0,0,1,1.7-1.109,8.183,8.183,0,0,1,2.752-.51c1.562-.072,2.031-.086,5.987-.086s4.426.016,5.989.086a8.245,8.245,0,0,1,2.752.51,4.591,4.591,0,0,1,1.7,1.109,4.591,4.591,0,0,1,1.109,1.7,8.183,8.183,0,0,1,.51,2.752c.072,1.563.086,2.031.086,5.989s-.014,4.426-.086,5.989a8.222,8.222,0,0,1-.51,2.752,4.907,4.907,0,0,1-2.813,2.812,8.183,8.183,0,0,1-2.752.51c-1.562.072-2.031.086-5.989.086s-4.426-.014-5.987-.086M8.71.09a10.867,10.867,0,0,0-3.6.688A7.269,7.269,0,0,0,2.487,2.487,7.241,7.241,0,0,0,.778,5.113,10.87,10.87,0,0,0,.09,8.71C.017,10.29,0,10.8,0,14.82s.017,4.53.09,6.11a10.869,10.869,0,0,0,.688,3.6,7.244,7.244,0,0,0,1.709,2.625,7.287,7.287,0,0,0,2.625,1.709,10.876,10.876,0,0,0,3.6.688c1.581.072,2.085.09,6.11.09s4.53-.017,6.11-.09a10.869,10.869,0,0,0,3.6-.688,7.577,7.577,0,0,0,4.335-4.335,10.84,10.84,0,0,0,.688-3.6c.072-1.581.089-2.085.089-6.11s-.017-4.53-.089-6.11a10.866,10.866,0,0,0-.688-3.6,7.288,7.288,0,0,0-1.709-2.625A7.252,7.252,0,0,0,24.528.778a10.853,10.853,0,0,0-3.6-.688C19.351.018,18.846,0,14.821,0S10.291.017,8.71.09" transform="translate(0 0)" fill="url(#radial-gradient)"/>
      <path id="Path_106" data-name="Path 106" d="M9.881,14.82a4.94,4.94,0,1,1,4.939,4.94,4.94,4.94,0,0,1-4.939-4.94m-2.671,0a7.61,7.61,0,1,0,7.61-7.61,7.61,7.61,0,0,0-7.61,7.61M20.953,6.908a1.778,1.778,0,1,0,1.779-1.778h0a1.779,1.779,0,0,0-1.778,1.778M8.833,26.883a8.191,8.191,0,0,1-2.752-.51,4.606,4.606,0,0,1-1.7-1.109,4.572,4.572,0,0,1-1.109-1.7,8.183,8.183,0,0,1-.51-2.752c-.072-1.562-.086-2.031-.086-5.989s.016-4.426.086-5.989a8.245,8.245,0,0,1,.51-2.752,4.606,4.606,0,0,1,1.109-1.7,4.567,4.567,0,0,1,1.7-1.109,8.183,8.183,0,0,1,2.752-.51c1.562-.072,2.031-.086,5.987-.086s4.426.016,5.989.086a8.245,8.245,0,0,1,2.752.51,4.591,4.591,0,0,1,1.7,1.109,4.591,4.591,0,0,1,1.109,1.7,8.183,8.183,0,0,1,.51,2.752c.072,1.563.086,2.031.086,5.989s-.014,4.426-.086,5.989a8.222,8.222,0,0,1-.51,2.752,4.907,4.907,0,0,1-2.813,2.812,8.183,8.183,0,0,1-2.752.51c-1.562.072-2.031.086-5.989.086s-4.426-.014-5.987-.086M8.71.09a10.867,10.867,0,0,0-3.6.688A7.269,7.269,0,0,0,2.487,2.487,7.241,7.241,0,0,0,.778,5.113,10.87,10.87,0,0,0,.09,8.71C.017,10.29,0,10.8,0,14.82s.017,4.53.09,6.11a10.869,10.869,0,0,0,.688,3.6,7.244,7.244,0,0,0,1.709,2.625,7.287,7.287,0,0,0,2.625,1.709,10.876,10.876,0,0,0,3.6.688c1.581.072,2.085.09,6.11.09s4.53-.017,6.11-.09a10.869,10.869,0,0,0,3.6-.688,7.577,7.577,0,0,0,4.335-4.335,10.84,10.84,0,0,0,.688-3.6c.072-1.581.089-2.085.089-6.11s-.017-4.53-.089-6.11a10.866,10.866,0,0,0-.688-3.6,7.288,7.288,0,0,0-1.709-2.625A7.252,7.252,0,0,0,24.528.778a10.853,10.853,0,0,0-3.6-.688C19.351.018,18.846,0,14.821,0S10.291.017,8.71.09" transform="translate(0 0)" fill="url(#radial-gradient-2)"/>
    </g>
  </g>
</svg>
