<svg xmlns="http://www.w3.org/2000/svg" width="30" height="30" viewBox="0 0 30 30">
  <g id="twitter" transform="translate(-980 -2978)">
    <rect id="Rectangle_200" data-name="Rectangle 200" width="30" height="30" transform="translate(980 2978)" fill="none"/>
    <path id="twitter-2" data-name="twitter" d="M9.435,24.39c11.321,0,17.513-9.383,17.513-17.519q0-.4-.017-.8A12.519,12.519,0,0,0,30,2.887a12.266,12.266,0,0,1-3.535.969A6.179,6.179,0,0,0,29.172.451a12.343,12.343,0,0,1-3.908,1.495A6.161,6.161,0,0,0,14.775,7.56,17.475,17.475,0,0,1,2.088,1.127a6.164,6.164,0,0,0,1.906,8.22,6.108,6.108,0,0,1-2.788-.77c0,.026,0,.051,0,.079a6.158,6.158,0,0,0,4.938,6.036,6.144,6.144,0,0,1-2.78.106,6.161,6.161,0,0,0,5.75,4.277,12.345,12.345,0,0,1-7.645,2.636A12.494,12.494,0,0,1,0,21.624,17.418,17.418,0,0,0,9.435,24.39" transform="translate(980 2981)" fill="#1da1f2"/>
  </g>
</svg>
