<svg xmlns="http://www.w3.org/2000/svg" width="320" height="160" viewBox="0 0 320 160">
  <defs>
    <style>
      .cls-1 {
        fill: #010d1b;
      }

      .cls-2, .cls-3 {
        stroke: none;
      }

      .cls-3 {
        fill: #608aff;
      }
    </style>
  </defs>
  <g id="topgraphic" transform="translate(-752.999 -315)">
    <g id="Subtraction_3" data-name="Subtraction 3" class="cls-1" transform="translate(13844 2072)">
      <path class="cls-2" d="M -12931.0009765625 -1597.500366210938 C -12941.8232421875 -1597.500366210938 -12952.6376953125 -1598.590576171875 -12963.1455078125 -1600.740844726562 C -12973.3857421875 -1602.836181640625 -12983.458984375 -1605.963012695312 -12993.0849609375 -1610.034423828125 C -13002.5380859375 -1614.033081054688 -13011.6533203125 -1618.980834960938 -13020.177734375 -1624.740356445312 C -13028.623046875 -1630.445434570312 -13036.5654296875 -1636.998413085938 -13043.7841796875 -1644.217041015625 C -13051.001953125 -1651.434692382812 -13057.5546875 -1659.376953125 -13063.2607421875 -1667.822998046875 C -13069.01953125 -1676.347290039062 -13073.9677734375 -1685.462768554688 -13077.9658203125 -1694.916259765625 C -13082.0380859375 -1704.541015625 -13085.1650390625 -1714.61376953125 -13087.259765625 -1724.855102539062 C -13089.3779296875 -1735.200927734375 -13090.466796875 -1745.844482421875 -13090.5 -1756.500244140625 L -12771.501953125 -1756.500244140625 C -12771.53515625 -1745.843017578125 -12772.6240234375 -1735.199462890625 -12774.7421875 -1724.855102539062 C -12776.8369140625 -1714.616821289062 -12779.962890625 -1704.5439453125 -12784.03515625 -1694.916259765625 C -12788.0341796875 -1685.462524414062 -12792.982421875 -1676.347045898438 -12798.740234375 -1667.822998046875 C -12804.4462890625 -1659.376831054688 -12810.9990234375 -1651.434692382812 -12818.216796875 -1644.217041015625 C -12825.4365234375 -1636.998657226562 -12833.37890625 -1630.445678710938 -12841.8232421875 -1624.740356445312 C -12850.353515625 -1618.977905273438 -12859.46875 -1614.030151367188 -12868.9169921875 -1610.034423828125 C -12878.54296875 -1605.963012695312 -12888.615234375 -1602.836181640625 -12898.8564453125 -1600.740844726562 C -12909.3642578125 -1598.590576171875 -12920.1787109375 -1597.500366210938 -12931.0009765625 -1597.500366210938 Z"/>
      <path class="cls-3" d="M -12931.0009765625 -1598.000366210938 C -12920.212890625 -1598.000366210938 -12909.431640625 -1599.087158203125 -12898.9560546875 -1601.230712890625 C -12888.748046875 -1603.319458007812 -12878.70703125 -1606.436401367188 -12869.1123046875 -1610.494995117188 C -12859.693359375 -1614.47802734375 -12850.6064453125 -1619.410278320312 -12842.1025390625 -1625.154663085938 C -12833.685546875 -1630.842163085938 -12825.767578125 -1637.374755859375 -12818.5703125 -1644.570678710938 C -12811.375 -1651.765747070312 -12804.8427734375 -1659.68310546875 -12799.1552734375 -1668.102783203125 C -12793.4150390625 -1676.600219726562 -12788.482421875 -1685.687133789062 -12784.4951171875 -1695.110961914062 C -12780.4365234375 -1704.708251953125 -12777.3193359375 -1714.749389648438 -12775.2314453125 -1724.955444335938 C -12773.154296875 -1735.10498046875 -12772.0693359375 -1745.543823242188 -12772.00390625 -1756.000244140625 L -13089.998046875 -1756.000244140625 C -13089.9326171875 -1745.545288085938 -13088.84765625 -1735.106323242188 -13086.7705078125 -1724.955322265625 C -13084.681640625 -1714.746459960938 -13081.564453125 -1704.705322265625 -13077.505859375 -1695.111083984375 C -13073.51953125 -1685.687377929688 -13068.587890625 -1676.600463867188 -13062.845703125 -1668.102905273438 C -13057.158203125 -1659.683227539062 -13050.6259765625 -1651.765869140625 -13043.4306640625 -1644.570678710938 C -13036.234375 -1637.37451171875 -13028.31640625 -1630.842041015625 -13019.8984375 -1625.154663085938 C -13011.400390625 -1619.413208007812 -13002.3134765625 -1614.48095703125 -12992.8896484375 -1610.494995117188 C -12983.2939453125 -1606.436401367188 -12973.2529296875 -1603.319458007812 -12963.0458984375 -1601.230712890625 C -12952.5703125 -1599.087158203125 -12941.7890625 -1598.000366210938 -12931.0009765625 -1598.000366210938 M -12931.0009765625 -1597.000366210938 C -12941.85546875 -1597.000366210938 -12952.705078125 -1598.093994140625 -12963.24609375 -1600.2509765625 C -12973.5185546875 -1602.35302734375 -12983.623046875 -1605.48974609375 -12993.279296875 -1609.573974609375 C -13002.76171875 -1613.584716796875 -13011.90625 -1618.547973632812 -13020.4580078125 -1624.326049804688 C -13028.9296875 -1630.04931640625 -13036.896484375 -1636.622680664062 -13044.1376953125 -1643.863525390625 C -13051.3779296875 -1651.103881835938 -13057.951171875 -1659.070922851562 -13063.6748046875 -1667.543090820312 C -13069.453125 -1676.095458984375 -13074.416015625 -1685.239501953125 -13078.4267578125 -1694.721435546875 C -13082.51171875 -1704.376953125 -13085.6484375 -1714.481689453125 -13087.75 -1724.7548828125 C -13089.9072265625 -1735.29541015625 -13091.0009765625 -1746.144287109375 -13091.0009765625 -1757.000244140625 L -12771.0009765625 -1757.000244140625 C -12771.0009765625 -1746.142456054688 -12772.0947265625 -1735.293823242188 -12774.251953125 -1724.7548828125 C -12776.353515625 -1714.483032226562 -12779.490234375 -1704.37841796875 -12783.57421875 -1694.721435546875 C -12787.5859375 -1685.23974609375 -12792.548828125 -1676.095581054688 -12798.326171875 -1667.543090820312 C -12804.0498046875 -1659.07080078125 -12810.623046875 -1651.103759765625 -12817.86328125 -1643.863525390625 C -12825.10546875 -1636.622924804688 -12833.072265625 -1630.049560546875 -12841.54296875 -1624.326049804688 C -12850.0986328125 -1618.546508789062 -12859.2421875 -1613.583251953125 -12868.72265625 -1609.573974609375 C -12878.3779296875 -1605.48974609375 -12888.482421875 -1602.35302734375 -12898.755859375 -1600.2509765625 C -12909.296875 -1598.093994140625 -12920.146484375 -1597.000366210938 -12931.0009765625 -1597.000366210938 Z"/>
    </g>
    <g id="Subtraction_2" data-name="Subtraction 2" class="cls-1" transform="translate(13844 2072)">
      <path class="cls-2" d="M -12931.0009765625 -1631.499267578125 C -12939.517578125 -1631.499267578125 -12948.0263671875 -1632.357177734375 -12956.29296875 -1634.049072265625 C -12964.3525390625 -1635.698120117188 -12972.2783203125 -1638.158325195312 -12979.8505859375 -1641.361450195312 C -12987.2861328125 -1644.506591796875 -12994.458984375 -1648.399658203125 -13001.16796875 -1652.9326171875 C -13007.8134765625 -1657.4228515625 -13014.0625 -1662.578979492188 -13019.7421875 -1668.2578125 C -13025.4189453125 -1673.935180664062 -13030.57421875 -1680.184448242188 -13035.06640625 -1686.83203125 C -13039.5986328125 -1693.540649414062 -13043.4912109375 -1700.713012695312 -13046.6357421875 -1708.14990234375 C -13049.8408203125 -1715.72900390625 -13052.3017578125 -1723.654663085938 -13053.9482421875 -1731.70703125 C -13055.607421875 -1739.814697265625 -13056.4638671875 -1748.153564453125 -13056.4970703125 -1756.500244140625 L -12805.5009765625 -1756.500244140625 C -12805.5341796875 -1748.152099609375 -12806.390625 -1739.813110351562 -12808.0498046875 -1731.70703125 C -12809.6982421875 -1723.650024414062 -12812.1591796875 -1715.724243164062 -12815.3623046875 -1708.14990234375 C -12818.505859375 -1700.718139648438 -12822.3984375 -1693.545776367188 -12826.9326171875 -1686.83203125 C -12831.421875 -1680.188110351562 -12836.5771484375 -1673.938842773438 -12842.2578125 -1668.2578125 C -12847.9375 -1662.579223632812 -12854.1865234375 -1657.423095703125 -12860.8330078125 -1652.9326171875 C -12867.54296875 -1648.399658203125 -12874.71484375 -1644.506591796875 -12882.150390625 -1641.361450195312 C -12889.724609375 -1638.157958984375 -12897.650390625 -1635.69775390625 -12905.7080078125 -1634.049072265625 C -12913.9755859375 -1632.357177734375 -12922.4853515625 -1631.499267578125 -12931.0009765625 -1631.499267578125 Z"/>
      <path class="cls-3" d="M -12931.0009765625 -1631.999267578125 C -12922.5185546875 -1631.999267578125 -12914.0419921875 -1632.853759765625 -12905.8076171875 -1634.538940429688 C -12897.783203125 -1636.181030273438 -12889.888671875 -1638.63134765625 -12882.345703125 -1641.822021484375 C -12874.939453125 -1644.954467773438 -12867.7958984375 -1648.83203125 -12861.1123046875 -1653.346923828125 C -12854.4931640625 -1657.819580078125 -12848.2685546875 -1662.955322265625 -12842.611328125 -1668.611328125 C -12836.953125 -1674.269897460938 -12831.8173828125 -1680.494384765625 -12827.34765625 -1687.11181640625 C -12822.8310546875 -1693.798828125 -12818.953125 -1700.942626953125 -12815.822265625 -1708.3447265625 C -12812.6318359375 -1715.888549804688 -12810.181640625 -1723.782470703125 -12808.5390625 -1731.807250976562 C -12806.9208984375 -1739.718627929688 -12806.068359375 -1747.852661132812 -12806.00390625 -1756.000244140625 L -13055.994140625 -1756.000244140625 C -13055.9296875 -1747.854125976562 -13055.0771484375 -1739.72021484375 -13053.458984375 -1731.807250976562 C -13051.818359375 -1723.787353515625 -13049.3681640625 -1715.893432617188 -13046.17578125 -1708.344604492188 C -13043.04296875 -1700.9375 -13039.166015625 -1693.793701171875 -13034.65234375 -1687.111938476562 C -13030.177734375 -1680.49072265625 -13025.04296875 -1674.266235351562 -13019.388671875 -1668.611450195312 C -13013.7314453125 -1662.955078125 -13007.5078125 -1657.8193359375 -13000.888671875 -1653.346923828125 C -12994.205078125 -1648.83203125 -12987.0615234375 -1644.954467773438 -12979.6552734375 -1641.822021484375 C -12972.1142578125 -1638.631713867188 -12964.2197265625 -1636.181396484375 -12956.193359375 -1634.538940429688 C -12947.9599609375 -1632.853759765625 -12939.4833984375 -1631.999267578125 -12931.0009765625 -1631.999267578125 M -12931.0009765625 -1630.999267578125 C -12939.55078125 -1630.999267578125 -12948.09375 -1631.860473632812 -12956.3935546875 -1633.559204101562 C -12964.484375 -1635.214721679688 -12972.4423828125 -1637.684936523438 -12980.044921875 -1640.901000976562 C -12987.5126953125 -1644.0595703125 -12994.712890625 -1647.968139648438 -13001.4482421875 -1652.518310546875 C -13008.1181640625 -1657.025146484375 -13014.392578125 -1662.20166015625 -13020.095703125 -1667.904296875 C -13025.7958984375 -1673.605102539062 -13030.9716796875 -1679.879028320312 -13035.48046875 -1686.552124023438 C -13040.03125 -1693.287719726562 -13043.939453125 -1700.48876953125 -13047.0966796875 -1707.955200195312 C -13050.3134765625 -1715.561889648438 -13052.7841796875 -1723.519409179688 -13054.4384765625 -1731.606811523438 C -13056.13671875 -1739.908569335938 -13056.998046875 -1748.4521484375 -13056.998046875 -1757.000244140625 L -12805 -1757.000244140625 C -12805 -1748.450073242188 -12805.861328125 -1739.906860351562 -12807.5595703125 -1731.606811523438 C -12809.2158203125 -1723.514892578125 -12811.6865234375 -1715.557250976562 -12814.9013671875 -1707.955200195312 C -12818.05859375 -1700.491333007812 -12821.9677734375 -1693.290283203125 -12826.5185546875 -1686.552124023438 C -12831.025390625 -1679.881103515625 -12836.2021484375 -1673.607055664062 -12841.904296875 -1667.904296875 C -12847.6064453125 -1662.203002929688 -12853.880859375 -1657.0263671875 -12860.552734375 -1652.518310546875 C -12867.2880859375 -1647.968139648438 -12874.48828125 -1644.0595703125 -12881.9560546875 -1640.901000976562 C -12889.560546875 -1637.6845703125 -12897.5185546875 -1635.21435546875 -12905.607421875 -1633.559204101562 C -12913.908203125 -1631.860473632812 -12922.4521484375 -1630.999267578125 -12931.0009765625 -1630.999267578125 Z"/>
    </g>
    <g id="Subtraction_1" data-name="Subtraction 1" class="cls-1" transform="translate(13844 2072)">
      <path class="cls-2" d="M -12931.0009765625 -1669.5 C -12942.8134765625 -1669.5 -12954.271484375 -1671.813354492188 -12965.05859375 -1676.375854492188 C -12970.2431640625 -1678.5693359375 -12975.244140625 -1681.283569335938 -12979.9208984375 -1684.443237304688 C -12984.5537109375 -1687.57275390625 -12988.9111328125 -1691.167724609375 -12992.8720703125 -1695.128173828125 C -12996.830078125 -1699.086547851562 -13000.42578125 -1703.443481445312 -13003.5576171875 -1708.078125 C -13006.71875 -1712.75830078125 -13009.4326171875 -1717.758911132812 -13011.6240234375 -1722.941284179688 C -13016.123046875 -1733.57763671875 -13018.435546875 -1744.865234375 -13018.5 -1756.500244140625 L -12843.501953125 -1756.500244140625 C -12843.56640625 -1744.865844726562 -12845.87890625 -1733.578247070312 -12850.376953125 -1722.941162109375 C -12852.568359375 -1717.759033203125 -12855.283203125 -1712.75830078125 -12858.443359375 -1708.078002929688 C -12861.576171875 -1703.442749023438 -12865.1708984375 -1699.085693359375 -12869.12890625 -1695.128051757812 C -12873.087890625 -1691.169189453125 -12877.4443359375 -1687.57421875 -12882.0791015625 -1684.443237304688 C -12886.7578125 -1681.282836914062 -12891.7587890625 -1678.568603515625 -12896.9423828125 -1676.375854492188 C -12907.7294921875 -1671.813354492188 -12919.1884765625 -1669.5 -12931.0009765625 -1669.5 Z"/>
      <path class="cls-3" d="M -12931.0009765625 -1670 C -12919.255859375 -1670 -12907.8623046875 -1672.300048828125 -12897.1376953125 -1676.83642578125 C -12891.9833984375 -1679.016479492188 -12887.0107421875 -1681.715209960938 -12882.3583984375 -1684.857543945312 C -12877.7509765625 -1687.970581054688 -12873.4189453125 -1691.545043945312 -12869.482421875 -1695.481689453125 C -12865.546875 -1699.416870117188 -12861.97265625 -1703.749145507812 -12858.8583984375 -1708.35791015625 C -12855.71484375 -1713.011474609375 -12853.0166015625 -1717.983520507812 -12850.8369140625 -1723.135986328125 C -12846.4296875 -1733.558715820312 -12844.1337890625 -1744.609497070312 -12844.0068359375 -1756.000244140625 L -13017.9951171875 -1756.000244140625 C -13017.8681640625 -1744.609008789062 -13015.572265625 -1733.55810546875 -13011.1640625 -1723.135986328125 C -13008.984375 -1717.983520507812 -13006.2861328125 -1713.011474609375 -13003.1435546875 -1708.358154296875 C -13000.029296875 -1703.749877929688 -12996.4541015625 -1699.417602539062 -12992.5185546875 -1695.481689453125 C -12988.580078125 -1691.543701171875 -12984.2470703125 -1687.96923828125 -12979.6416015625 -1684.857543945312 C -12974.9912109375 -1681.715942382812 -12970.0185546875 -1679.017211914062 -12964.86328125 -1676.83642578125 C -12954.138671875 -1672.300048828125 -12942.74609375 -1670 -12931.0009765625 -1670 M -12931.0009765625 -1669 C -12942.880859375 -1669 -12954.404296875 -1671.32666015625 -12965.2529296875 -1675.915405273438 C -12970.4677734375 -1678.121337890625 -12975.4970703125 -1680.85107421875 -12980.201171875 -1684.028930664062 C -12984.8603515625 -1687.1767578125 -12989.2421875 -1690.792114257812 -12993.2255859375 -1694.774536132812 C -12997.20703125 -1698.756103515625 -13000.822265625 -1703.137817382812 -13003.9716796875 -1707.798217773438 C -13007.1513671875 -1712.505981445312 -13009.880859375 -1717.535278320312 -13012.0849609375 -1722.746459960938 C -13016.673828125 -1733.596313476562 -13019.0009765625 -1745.120971679688 -13019.0009765625 -1757.000244140625 L -12843.0009765625 -1757.000244140625 C -12843.0009765625 -1745.120483398438 -12845.328125 -1733.59619140625 -12849.916015625 -1722.746459960938 C -12852.1220703125 -1717.531372070312 -12854.8525390625 -1712.502075195312 -12858.029296875 -1707.798217773438 C -12861.1787109375 -1703.137451171875 -12864.7939453125 -1698.755615234375 -12868.775390625 -1694.774536132812 C -12872.7568359375 -1690.792846679688 -12877.138671875 -1687.177490234375 -12881.798828125 -1684.028930664062 C -12886.50390625 -1680.850708007812 -12891.533203125 -1678.120971679688 -12896.748046875 -1675.915405273438 C -12907.5966796875 -1671.32666015625 -12919.12109375 -1669 -12931.0009765625 -1669 Z"/>
    </g>
  </g>
</svg>
